<?xml version="1.0" encoding="UTF-8"?>
<!DOCTYPE svg PUBLIC "-//W3C//DTD SVG 1.1//EN" "http://www.w3.org/Graphics/SVG/1.1/DTD/svg11.dtd">
<svg xmlns="http://www.w3.org/2000/svg" version="1.1" width="32px" height="32px" style="shape-rendering:geometricPrecision; text-rendering:geometricPrecision; image-rendering:optimizeQuality; fill-rule:evenodd; clip-rule:evenodd" xmlns:xlink="http://www.w3.org/1999/xlink">
<g><path style="opacity:0.938" fill="#fafafa" d="M 9.5,-0.5 C 13.5,-0.5 17.5,-0.5 21.5,-0.5C 25.8333,1.83333 29.1667,5.16667 31.5,9.5C 31.5,13.5 31.5,17.5 31.5,21.5C 29.8396,25.1604 27.1729,27.8271 23.5,29.5C 22.2825,28.8386 20.9492,28.1719 19.5,27.5C 20.0118,22.8071 20.3451,18.1405 20.5,13.5C 20.5637,11.6107 20.0637,9.94406 19,8.5C 16.6667,12.5 14.3333,12.5 12,8.5C 9.8408,12.1916 10.0075,15.6916 12.5,19C 11.7511,20.7337 11.2511,22.567 11,24.5C 8.26529,22.171 6.76529,19.171 6.5,15.5C 5.91395,15.7093 5.41395,16.0426 5,16.5C 3.32653,22.4951 5.4932,26.3285 11.5,28C 9.94186,28.21 8.60853,28.71 7.5,29.5C 3.82707,27.8271 1.16041,25.1604 -0.5,21.5C -0.5,17.5 -0.5,13.5 -0.5,9.5C 1.83333,5.16667 5.16667,1.83333 9.5,-0.5 Z"/></g>
<g><path style="opacity:1" fill="#151515" d="M 23.5,29.5 C 22.8333,30.1667 22.1667,30.8333 21.5,31.5C 17.5,31.5 13.5,31.5 9.5,31.5C 8.83333,30.8333 8.16667,30.1667 7.5,29.5C 8.60853,28.71 9.94186,28.21 11.5,28C 5.4932,26.3285 3.32653,22.4951 5,16.5C 5.41395,16.0426 5.91395,15.7093 6.5,15.5C 6.76529,19.171 8.26529,22.171 11,24.5C 11.2511,22.567 11.7511,20.7337 12.5,19C 10.0075,15.6916 9.8408,12.1916 12,8.5C 14.3333,12.5 16.6667,12.5 19,8.5C 20.0637,9.94406 20.5637,11.6107 20.5,13.5C 20.3451,18.1405 20.0118,22.8071 19.5,27.5C 20.9492,28.1719 22.2825,28.8386 23.5,29.5 Z"/></g>
</svg>
